Raja Vikramarka (1990) VCD Telugu Movie - teluguppls



General

Format                           : CDXA/MPEG-PS
File size                        : 1549 MiB
Duration                         : 2h 38mn
Overall bit rate                 : 1 412 Kbps


Video

Format                           : MPEG Video
Duration                         : 2h 38mn
Bit rate mode                    : Constant
Bit rate                         : 1 120 Kbps
Width                            : 352 pixels
Height                           : 288 pixels
Display aspect ratio             : 4:3
Frame rate                       : 25.000 fps
Standard                         : PAL
Color space                      : YUV
Bit depth                        : 8 bits
Scan type                        : Progressive
Compression mode                 : Lossy
Bits/(Pixel*Frame)               : 0.442
Stream size                      : 1272 MiB (82%)


Audio

Format                           : MPEG Audio
Duration                         : 2h 32mn
Bit rate mode                    : Constant
Bit rate                         : 224 Kbps
Channel(s)                       : 2 channels
Sampling rate                    : 44.1 KHz
Compression mode                 : Lossy
Delay relative to video          : -80ms
Stream size                      : 246 MiB (16%)


PLEASE SEEEEEEEEEEEDDDDDDDDDDDDDDDD.......................

POST A COMMENT....................


